<?xml version="1.0" encoding="utf-8" ?>
<svg xmlns="http://www.w3.org/2000/svg" xmlns:xlink="http://www.w3.org/1999/xlink" width="1024" height="1024">
	<path fill="#BC4745" d="M0 0L1024 0L1024 1024L982.969 1024L965.977 1024L940.946 1024L878.21 1024L835.973 1024L799.664 1024L747.726 1024L647.751 1024L603.732 1024L551.197 1024L516.648 1024L507.856 1024L475.289 1024L420.805 1024L372.756 1024L277.116 1024L223.645 1024L188.734 1024L147.259 1024L84.0227 1024L57.8319 1024L41.2946 1024L0 1024L0 0Z"/>
	<path fill="#B21216" d="M623.378 475.553Q638.478 481.268 653.445 487.321C657.585 488.963 663.024 490.406 666.746 492.74C665.983 492.954 664.658 493.081 664.209 493.76C663.203 495.28 663.677 497.411 662.807 499.147L658.97 497.557C656.898 497.126 654.595 495.862 652.618 495.016C645.277 491.874 629.903 483.67 623.181 482.353C623.627 480.312 623.349 477.671 623.378 475.553Z"/>
	<path fill="#B21216" d="M366.736 244.268L367.656 245.012C367.626 245.781 367.607 246.526 367.496 247.289C362.691 252.095 357.76 257.437 353.803 262.957C350.109 267.272 345.039 272.184 343.327 277.688C342.126 281.548 342.843 346.055 343.266 355.236C346.726 359.822 350.363 364.328 354.461 368.365C359.108 373.819 363.771 379.358 368.708 384.548L368.817 389.129C362.444 382.875 343.842 362.604 340.016 355.599Q340.083 332.334 339.874 309.07C339.767 299.97 339.116 290.524 339.636 281.467C339.774 279.056 340.066 276.477 341.154 274.291C346.907 262.736 358.122 253.621 366.736 244.268Z"/>
	<path fill="#B21216" d="M354.963 497.994C362.53 495.7 369.974 492.952 377.532 490.609C385.507 488.138 393.791 486.037 401.585 483.06C401.482 484.373 401.521 485.834 401.082 487.074C388.524 490.303 376.47 495.25 363.966 498.535C364.008 506.202 363.874 513.913 364.117 521.574L364.046 523.802C362.345 523.846 360.692 523.939 359.002 524.134L359.051 524.432C346.348 529.839 239.085 573.339 235.836 578.399L235.51 578.596C235.416 577.005 235.623 575.361 235.738 573.77C245.242 569.214 255.081 565.177 264.698 560.847Q309.349 540.667 354.925 522.672C354.581 514.493 354.92 506.185 354.963 497.994Z"/>
	<path fill="#EA3739" d="M357.891 500.348C359.885 499.6 361.909 499.075 363.966 498.535C364.008 506.202 363.874 513.913 364.117 521.574L364.046 523.802C362.345 523.846 360.692 523.939 359.002 524.134C358.729 523.063 358.399 522.036 358.036 520.991C357.826 514.124 357.93 507.22 357.891 500.348Z"/>
	<path fill="#EA3739" d="M358.036 520.991L364.117 521.574L364.046 523.802C362.345 523.846 360.692 523.939 359.002 524.134C358.729 523.063 358.399 522.036 358.036 520.991Z"/>
	<path fill="#B21216" d="M679.813 525.816Q716.566 540.603 752.976 556.216C761.426 559.809 770.795 565.508 779.482 567.933C780.054 570.772 780.488 573.727 781.4 576.477L776.73 575.424L718.009 549.964C705.311 544.501 692.719 538.765 679.883 533.632C679.506 531.213 679.797 528.287 679.813 525.816Z"/>
	<path fill="#FCD569" d="M353.803 262.957C355.509 275.667 354.587 289.463 354.735 302.309Q354.972 324.677 354.778 347.045C354.716 354.058 355.063 361.389 354.461 368.365C350.363 364.328 346.726 359.822 343.266 355.236C342.843 346.055 342.126 281.548 343.327 277.688C345.039 272.184 350.109 267.272 353.803 262.957Z"/>
	<path fill="#EA3739" d="M353.803 262.957C357.76 257.437 362.691 252.095 367.496 247.289C367.716 261.62 369.995 275.931 370.216 290.249C370.375 300.547 369.744 310.919 369.578 321.221L368.708 384.548C363.771 379.358 359.108 373.819 354.461 368.365C355.063 361.389 354.716 354.058 354.778 347.045Q354.972 324.677 354.735 302.309C354.587 289.463 355.509 275.667 353.803 262.957Z"/>
	<path fill="#B21216" d="M799.033 558.614C858.859 573.566 905.241 621.424 936.058 672.789Q939.938 679.257 943.503 685.904Q947.067 692.55 950.308 699.361Q953.55 706.171 956.46 713.13Q959.37 720.088 961.942 727.178Q964.515 734.268 966.744 741.473Q968.972 748.679 970.852 755.983Q972.732 763.288 974.259 770.674Q975.786 778.06 976.956 785.511C978.629 796.84 979.282 808.341 980.008 819.763C981.713 846.581 980.878 873.725 974.462 899.94C974.315 900.54 974.075 900.895 973.656 901.338C972.865 901.266 972.76 901.341 972.082 900.857L971.847 898.626C960.447 893.698 949.286 886.947 938.999 880.01C876.876 838.117 842.773 775.988 823.897 704.694C818.777 685.357 815.25 665.567 811.429 645.943Q806.737 620.998 803.277 595.853C802.204 587.809 801.156 579.715 800.615 571.615L799.756 563.018L799.033 558.614Z"/>
	<path fill="#F2BEAC" d="M799.756 563.018C801.813 562.473 806.127 564.412 808.126 565.098C815.082 567.413 838.44 575.899 842.393 580.767C841.39 589.563 841.863 598.374 841.402 607.184C830.057 601.072 815.884 597.876 803.277 595.853C802.204 587.809 801.156 579.715 800.615 571.615L799.756 563.018Z"/>
	<path fill="#F2BEAC" d="M843.838 581.412Q849.863 584.996 855.647 588.959Q861.43 592.922 866.948 597.247Q872.466 601.572 877.696 606.241Q882.926 610.911 887.846 615.905C890.236 618.297 893.271 620.903 895.17 623.662C893.448 629.093 893.931 636.113 893.169 641.866C891.826 639.527 887.599 636.873 885.39 635.14C872.486 625.016 858.509 614.246 843.176 608.058C842.603 599.43 843.205 590.046 843.838 581.412Z"/>
	<path fill="#F18076" d="M803.277 595.853C815.884 597.876 830.057 601.072 841.402 607.184C840.373 620.405 841.87 634.149 842.667 647.35C838.422 647.624 834.022 646.857 829.762 646.693C823.743 646.461 817.363 646.952 811.429 645.943Q806.737 620.998 803.277 595.853Z"/>
	<path fill="#F18076" d="M843.176 608.058C858.509 614.246 872.486 625.016 885.39 635.14C887.599 636.873 891.826 639.527 893.169 641.866C892.798 650.067 892.531 658.229 892.568 666.439C877.828 658.529 861.875 651.244 845.387 648.053C843.676 634.798 843.779 621.384 843.176 608.058Z"/>
	<path fill="#EA3739" d="M845.387 648.053C861.875 651.244 877.828 658.529 892.568 666.439C894.341 693.408 899.988 715.756 911.662 740.148L911.418 740.937C906.448 757.289 901.523 775 888.891 787.365C884.849 778.828 879.243 770.997 875.229 762.35Q872.146 755.599 869.359 748.722Q866.571 741.844 864.083 734.852Q861.595 727.861 859.411 720.768Q857.228 713.675 855.353 706.495Q853.479 699.315 851.916 692.06Q850.353 684.805 849.106 677.49Q847.858 670.174 846.928 662.812Q845.998 655.449 845.387 648.053Z"/>
	<path fill="#801A27" d="M911.662 740.148C916.29 749.023 921.057 757.7 926.935 765.823C936.77 779.417 960.079 802.659 975.476 808.305C975.692 808.385 975.925 808.409 976.149 808.461C977.595 809.979 978.68 810.977 978.878 813.145C979.55 820.492 981.173 864.394 977.713 868.513C977.379 868.911 977.167 869.062 976.749 869.429C974.907 868.873 973.129 868.049 971.35 867.316C969.228 863.549 954.023 856.647 949.418 853.55C934.222 843.329 920.916 830.754 909.036 816.855C904.903 812.02 888.51 792.155 888.891 787.365C901.523 775 906.448 757.289 911.418 740.937L911.662 740.148Z"/>
	<path fill="#FCFCFB" d="M895.17 623.662C940.159 672.571 971.523 741.986 976.149 808.461C975.925 808.409 975.692 808.385 975.476 808.305C960.079 802.659 936.77 779.417 926.935 765.823C921.057 757.7 916.29 749.023 911.662 740.148C899.988 715.756 894.341 693.408 892.568 666.439C892.531 658.229 892.798 650.067 893.169 641.866C893.931 636.113 893.448 629.093 895.17 623.662Z"/>
	<path fill="#EC9843" d="M811.429 645.943C817.363 646.952 823.743 646.461 829.762 646.693C834.022 646.857 838.422 647.624 842.667 647.35C848.83 708.618 866.768 769.019 906.989 816.858C914.953 826.331 923.444 835.379 933.022 843.245C943.635 851.962 958.495 862.82 971.35 867.316C973.129 868.049 974.907 868.873 976.749 869.429C975.178 879.144 973.243 888.906 971.847 898.626C960.447 893.698 949.286 886.947 938.999 880.01C876.876 838.117 842.773 775.988 823.897 704.694C818.777 685.357 815.25 665.567 811.429 645.943Z"/>
	<defs>
		<linearGradient id="gradient_0" gradientUnits="userSpaceOnUse" x1="76.840576" y1="680.99146" x2="167.95291" y2="755.94873">
			<stop offset="0" stop-color="#9C1418"/>
			<stop offset="1" stop-color="#7C1A2B"/>
		</linearGradient>
	</defs>
	<path fill="url(#gradient_0)" d="M51.8785 900.764L50.749 901.295L50.1222 900.728C48.9514 897.139 48.7886 893.105 48.2246 889.37C45.674 872.479 44.3758 855.894 44.3912 838.807C44.4117 816.162 46.0364 793.783 50.4426 771.541C61.422 716.116 90.2199 656.905 130.467 616.826C152.246 595.139 178.194 576.217 206.777 564.592C211.379 562.72 217.258 559.984 222.285 559.987C221.94 562.689 221.749 565.344 221.638 568.064C221.417 575.206 221.463 582.514 220.663 589.618Q220.047 604.871 218.336 620.041L216.214 636.15C212.695 658.328 209.451 680.38 203.698 702.126C186.567 766.874 149.805 834.021 94.7703 874.082C80.7755 884.269 68.34 890.705 52.9129 898.336L51.3283 900.017L51.8785 900.764Z"/>
	<path fill="#FCFCFB" d="M76.6636 703.16C88.8492 674.54 107.171 646.174 129.15 624.087C130.466 634.841 130.986 645.41 130.981 656.237C117.037 665.63 104.65 675.96 92.5665 687.623C90.11 689.994 78.3436 703.267 77.0186 703.593L76.6636 703.16Z"/>
	<path fill="#F18076" d="M181.479 581.627C183.479 586.469 182.909 599.749 183.029 605.579C170.323 612.226 158.79 620.063 147.648 629.083C142.882 632.941 138.385 637.498 133.407 641.025C133.377 634.991 133.011 627.525 131.545 621.67C145.958 605.95 163.583 593.054 181.479 581.627Z"/>
	<path fill="#EA3739" d="M183.029 605.579Q183.085 615.821 182.904 626.061C182.766 631.125 182.047 636.565 182.714 641.565C165.006 645.546 148.992 653.498 133.362 662.469C133.537 655.327 133.064 648.157 133.407 641.025C138.385 637.498 142.882 632.941 147.648 629.083C158.79 620.063 170.323 612.226 183.029 605.579Z"/>
	<path fill="#F29C5A" d="M183.387 580.321C184.574 579.758 185.727 579.055 186.885 578.427C191.961 575.674 217.201 562.016 221.554 563.307L221.638 568.064C221.417 575.206 221.463 582.514 220.663 589.618Q220.047 604.871 218.336 620.041L216.214 636.15C205.009 635.716 194.803 638.74 183.981 641.069L183.775 643.41L182.714 641.565C182.047 636.565 182.766 631.125 182.904 626.061Q183.085 615.821 183.029 605.579C182.909 599.749 183.479 586.469 181.479 581.627C182.028 581.065 182.718 580.727 183.387 580.321Z"/>
	<path fill="#B21216" d="M181.479 581.627C182.028 581.065 182.718 580.727 183.387 580.321C183.696 588.418 183.836 596.59 184.495 604.664C184.865 616.656 185.347 629.118 183.981 641.069L183.775 643.41L182.714 641.565C182.047 636.565 182.766 631.125 182.904 626.061Q183.085 615.821 183.029 605.579C182.909 599.749 183.479 586.469 181.479 581.627Z"/>
	<path fill="#EC9843" d="M183.387 580.321C184.574 579.758 185.727 579.055 186.885 578.427C191.961 575.674 217.201 562.016 221.554 563.307L221.638 568.064C221.417 575.206 221.463 582.514 220.663 589.618C207.872 593.364 196.332 598.595 184.495 604.664C183.836 596.59 183.696 588.418 183.387 580.321Z"/>
	<path fill="#CED3D4" d="M76.6636 703.16L77.0186 703.593C78.3436 703.267 90.11 689.994 92.5665 687.623C104.65 675.96 117.037 665.63 130.981 656.237C130.628 665.082 130.263 673.831 129.012 682.604C123.412 721.879 106.359 761.417 76.9745 788.676C68.6354 796.412 59.1654 804.072 48.6485 808.578C51.7739 778.853 57.8618 750.874 68.4126 722.852C70.8602 716.351 73.327 709.257 76.6636 703.16Z"/>
	<path fill="#EC9843" d="M216.214 636.15C212.695 658.328 209.451 680.38 203.698 702.126C186.567 766.874 149.805 834.021 94.7703 874.082C80.7755 884.269 68.34 890.705 52.9129 898.336C50.5342 889.166 49.8877 878.75 48.6838 869.302C64.864 861.508 79.5105 852.179 93.2377 840.553C139.186 801.638 167.331 742.186 178.633 683.892C181.226 670.519 182.651 656.975 183.775 643.41L183.981 641.069C194.803 638.74 205.009 635.716 216.214 636.15Z"/>
	<path fill="#231A3E" d="M636.349 61.0644C650.516 116.021 666.9 180.425 656.944 237.204C656.474 239.887 654.265 246.875 656.064 248.972C663.056 252.528 680.157 271.485 687.024 277.827L686.848 287.107C687.072 311.332 686.668 335.564 687.033 359.788C681.498 364.986 665.714 382.215 658.494 382.128C656.315 382.102 654.004 381.451 651.931 380.808L652.068 425.462Q637.677 438.52 622.916 451.16Q623.258 463.354 623.378 475.553C623.349 477.671 623.627 480.312 623.181 482.353C629.903 483.67 645.277 491.874 652.618 495.016C654.595 495.862 656.898 497.126 658.97 497.557L662.807 499.147C663.677 497.411 663.203 495.28 664.209 493.76C664.658 493.081 665.983 492.954 666.746 492.74C667.794 493.199 669.763 493.657 670.187 494.837C671.482 498.444 671.358 502.905 672.454 506.672C674.355 513.21 677.69 519.341 679.813 525.816C679.797 528.287 679.506 531.213 679.883 533.632C692.719 538.765 705.311 544.501 718.009 549.964L776.73 575.424L781.4 576.477C780.488 573.727 780.054 570.772 779.482 567.933C786.058 564.96 792.456 561.599 799.033 558.614L799.756 563.018L800.615 571.615C801.156 579.715 802.204 587.809 803.277 595.853Q806.737 620.998 811.429 645.943C815.25 665.567 818.777 685.357 823.897 704.694C842.773 775.988 876.876 838.117 938.999 880.01C949.286 886.947 960.447 893.698 971.847 898.626L972.082 900.857L959.121 895.36C963.289 911.818 965.964 928.735 969.036 945.431Q976.448 984.636 982.969 1024L965.977 1024L940.946 1024L878.21 1024L835.973 1024L799.664 1024L747.726 1024L647.751 1024L603.732 1024L551.197 1024L516.648 1024L507.856 1024L475.289 1024L420.805 1024L372.756 1024L277.116 1024L223.645 1024L188.734 1024L147.259 1024L84.0227 1024L57.8319 1024L41.2946 1024Q51.6375 959.956 63.4899 896.175C59.6609 897.832 55.7914 899.318 51.8785 900.764L51.3283 900.017L52.9129 898.336C68.34 890.705 80.7755 884.269 94.7703 874.082C149.805 834.021 186.567 766.874 203.698 702.126C209.451 680.38 212.695 658.328 216.214 636.15L218.336 620.041Q220.047 604.871 220.663 589.618C221.463 582.514 221.417 575.206 221.638 568.064C221.749 565.344 221.94 562.689 222.285 559.987C226.775 564.524 231.533 568.975 235.738 573.77C235.623 575.361 235.416 577.005 235.51 578.596L235.836 578.399C239.085 573.339 346.348 529.839 359.051 524.432L359.002 524.134C360.692 523.939 362.345 523.846 364.046 523.802L364.117 521.574C363.874 513.913 364.008 506.202 363.966 498.535C376.47 495.25 388.524 490.303 401.082 487.074C401.521 485.834 401.482 484.373 401.585 483.06Q401.463 468.406 402.005 453.761Q385.498 437.818 368.703 422.177C368.975 411.337 369.656 399.922 368.817 389.129L368.708 384.548L369.578 321.221C369.744 310.919 370.375 300.547 370.216 290.249C369.995 275.931 367.716 261.62 367.496 247.289C367.607 246.526 367.626 245.781 367.656 245.012L366.736 244.268C366.462 243.812 366.355 243.673 366.157 243.224C364.541 239.558 364.953 228.982 364.799 224.46C363.235 178.706 370.573 116.337 386.157 73.3041L386.435 72.0701C387.265 68.7003 388.096 65.3411 388.755 61.9328C388.782 68.2627 388.632 74.5752 389.034 80.8975C390.722 107.417 396.741 135.462 406.267 160.273C427.608 132.107 458.794 114.524 493.713 109.625Q495.354 109.392 497 109.199Q498.646 109.006 500.296 108.853Q501.946 108.701 503.599 108.588Q505.253 108.476 506.908 108.404Q508.564 108.332 510.221 108.301Q511.878 108.27 513.535 108.279Q515.192 108.288 516.848 108.338Q518.505 108.387 520.16 108.477Q521.814 108.567 523.466 108.698Q525.118 108.828 526.767 108.999Q528.415 109.17 530.059 109.381Q531.703 109.592 533.341 109.844Q534.979 110.095 536.61 110.386Q538.241 110.677 539.865 111.008Q541.489 111.339 543.104 111.71Q544.719 112.08 546.325 112.49Q547.931 112.9 549.526 113.349Q551.121 113.798 552.705 114.286Q554.289 114.774 555.86 115.301Q557.431 115.827 558.989 116.392Q560.547 116.957 562.091 117.559Q563.635 118.162 565.163 118.802Q566.692 119.442 568.204 120.12Q569.717 120.797 571.212 121.511Q572.708 122.225 574.185 122.976Q575.663 123.726 577.121 124.513Q578.58 125.299 580.019 126.121Q581.458 126.943 582.877 127.799Q584.295 128.656 585.693 129.547Q587.09 130.438 588.465 131.363Q589.84 132.288 591.192 133.247Q592.544 134.205 593.872 135.196Q597.424 137.874 600.775 140.8Q604.125 143.726 607.256 146.886Q610.387 150.046 613.282 153.423Q616.178 156.799 618.823 160.376C627.462 130.878 637.124 91.8179 636.349 61.0644Z"/>
	<path fill="#EA3739" d="M649.118 259.852C649.849 260.773 649.889 261.421 649.926 262.566C650.151 269.435 649.632 276.512 649.483 283.394Q649.022 302.593 648.989 321.797C645.211 324.421 641.677 327.598 638.099 330.497C638.056 330.45 638.004 330.41 637.972 330.356C636.341 327.623 645.231 288.799 646.253 282.472C647.462 274.994 647.698 267.249 649.118 259.852Z"/>
	<path fill="#266193" d="M223.458 565.692C226.867 569.249 230.635 572.505 234.266 575.836C233.907 580.434 232.903 585.049 232.122 589.594C228.495 607.927 224.472 626.467 219.136 644.381C219.523 636.424 219.49 628.427 220.121 620.486C222.297 604.747 223.713 581.631 223.458 565.692Z"/>
	<path fill="#EA3739" d="M452.815 884.788L453.636 885.585C437.014 902.711 412.7 913.143 389.811 918.618C387.677 912.852 386.038 906.826 384.457 900.888C403.104 900.857 420.96 898.043 438.556 891.709C443.611 889.89 448.55 888.119 452.815 884.788Z"/>
	<path fill="#EA3739" d="M568.412 886.461C592.454 896.28 615.047 902.217 641.266 901.137C641.603 905.957 636.849 914.963 635.42 920.03C623.959 916.831 612.793 913.496 601.992 908.414C595.735 905.469 570.324 891.716 568.412 886.461Z"/>
	<path fill="#266193" d="M386.435 72.0701L387.443 72.4993C388.84 77.3018 387.71 92.0955 388.394 98.5823Q390.346 115.608 393.836 132.387Q397.327 149.165 402.327 165.557C396.803 174.086 392.48 182.983 388.406 192.264Q386.943 186.8 385.737 181.274Q384.53 175.748 383.582 170.172Q382.634 164.596 381.947 158.982Q381.26 153.368 380.834 147.727Q380.409 142.087 380.247 136.433Q380.084 130.78 380.186 125.124Q380.287 119.469 380.651 113.825Q381.015 108.18 381.642 102.559C382.344 96.186 383.379 89.8261 384.472 83.5098C385.039 80.2335 386.04 76.6095 386.157 73.3041L386.435 72.0701Z"/>
	<path fill="#264671" d="M436.543 520.224C436.7 520.31 436.864 520.384 437.013 520.483C439.668 522.249 445.766 529.697 447.158 532.71C450.749 540.477 452.398 550.238 454.593 558.55Q461.151 583.729 467.999 608.832C459.061 606.612 450.048 602.021 441.593 598.358C441.471 572.425 439.495 545.983 436.543 520.224Z"/>
	<path fill="#266193" d="M583.985 513.958C585.375 516.13 582.939 534.312 582.736 538.301C581.696 558.713 580.82 579.27 580.495 599.706C572.096 603.536 563.312 606.545 554.633 609.671L554.142 608.781C558.287 590.614 563.472 572.653 568.284 554.652C570.825 545.146 573.953 530.193 577.923 521.788C579.189 519.109 582.059 516.265 583.985 513.958Z"/>
	<path fill="#266193" d="M637.2 71.2974L637.959 71.7921C640.171 77.0889 640.714 83.5981 641.634 89.2682C646.136 117.006 646.418 144.329 643.643 172.304C642.734 181.472 641.723 190.818 639.692 199.813L637.718 194.378C634.126 184.808 629.14 175.436 623.309 167.068C631.08 133.349 636.08 106.126 637.2 71.2974Z"/>
	<path fill="#264671" d="M411.013 490.431C414.208 492.703 428.682 510.447 431.457 514.457C432.733 541.158 434.259 568.041 433.942 594.773C427.354 591.924 421.14 588.225 414.499 585.427C414.545 553.775 411.482 522.087 411.013 490.431Z"/>
	<path fill="#266193" d="M610.233 476.867C611.026 486.727 609.931 498.036 609.954 508.13Q610.149 546.841 609.955 585.552C603.839 589.31 597.07 592.122 590.551 595.094C589.822 584.429 589.143 513.605 590.866 507.734C593.122 500.053 605.345 484.49 610.233 476.867Z"/>
	<path fill="#BC4745" d="M248.76 939.369C258.097 967.598 268.228 995.632 277.116 1024L223.645 1024C231.865 995.75 240.753 967.676 248.76 939.369Z"/>
	<path fill="#BC4745" d="M776.061 941.124C784.978 968.372 791.256 996.59 799.664 1024L747.726 1024C753.216 1004.23 758.902 984.99 765.893 965.697C768.869 957.482 771.781 948.764 776.061 941.124Z"/>
	<path fill="#2D7DB0" d="M491.246 482.567L514.269 482.903L544.011 482.973Q543.808 501.822 544.546 520.658C534.139 519.594 471.306 522.009 467.874 519.481C475.177 506.971 483.487 494.811 491.246 482.567Z"/>
	<path fill="#266193" d="M923.584 926.027C931.992 926.05 940.377 925.249 948.765 924.769Q958.108 974.257 965.977 1024L940.946 1024C934.79 991.41 929.519 958.657 923.584 926.027Z"/>
	<path fill="#264671" d="M74.2322 925.563C83.0952 925.635 92.0007 925.93 100.856 926.296C94.5922 958.69 88.574 991.325 84.0227 1024L57.8319 1024C60.5366 1013.66 61.5704 1002.18 63.2806 991.608C66.8418 969.585 70.3583 947.533 74.2322 925.563Z"/>
	<path fill="#EA3739" d="M636.539 332.744C640.836 331.365 645.396 326.482 648.863 323.57L648.851 344.29L595.881 387.953Q595.578 430.346 596.003 472.736C589.738 478.638 583.385 485.605 576.513 490.728L576.452 377.716C586.474 370.573 631.452 334.231 636.539 332.744Z"/>
	<path fill="#EC9843" d="M656.064 248.972C663.056 252.528 680.157 271.485 687.024 277.827L686.848 287.107C685.205 291.84 686.868 347.486 686.206 358.741L685.806 358.752C685.269 356.887 685.133 355.039 684.655 353.203L684.601 359.161C679.361 363.951 667.355 376.313 661.743 379.002C658.287 380.657 655.327 379.403 652.037 378.114L652.389 300.004C652.411 285.942 652.131 271.8 652.664 257.749C652.762 255.163 654.078 251.45 655.807 249.512L656.064 248.972Z"/>
	<path fill="#1B0E36" d="M656.064 248.972C663.056 252.528 680.157 271.485 687.024 277.827L686.848 287.107C685.205 291.84 686.868 347.486 686.206 358.741L685.806 358.752C685.269 356.887 685.133 355.039 684.655 353.203C684.22 344.204 684.572 334.98 684.646 325.965L684.994 278.667C676.007 269.413 663.261 259.599 655.807 249.512L656.064 248.972Z"/>
	<path fill="#FCFCFB" d="M671.481 274.918C673.099 274.983 674.325 274.766 675.695 275.666C676.753 284.684 675.908 294.706 675.93 303.829C675.97 320.431 676.356 337.109 675.888 353.702C674.513 353.731 673.622 353.74 672.309 353.246C670.51 350.141 671.487 284.632 671.481 274.918Z"/>
	<path fill="#419BC1" d="M398.327 578.76C436.207 600.136 467.929 613.15 509.977 624.374L510.111 709.22C500.963 709.885 491.988 712.292 483.098 714.42Q482.849 675.151 483.444 635.886Q430.728 613.597 379.59 587.893C385.785 584.749 391.941 581.503 398.327 578.76Z"/>
	<path fill="#266193" d="M648.329 345.928C649.635 348.345 648.546 414.929 648.7 424.434Q622.845 447.475 597.553 471.132L597.079 471.286C596.909 471.109 596.651 470.987 596.568 470.756C596 469.188 596.93 397.618 597.01 388.71C613.482 373.841 632.449 361.443 648.329 345.928Z"/>
	<path fill="#264671" d="M373.534 345.276C378.296 348.066 381.845 352.614 387.021 354.877C392.361 358.451 397.345 362.97 402.358 367.007C411.748 374.567 421.063 381.975 429.931 390.164Q429.715 419.093 429.915 448.021C429.939 457.798 430.729 468.461 429.459 478.13C424.46 472.142 418.488 466.706 412.969 461.189C404.73 452.954 396.564 444.627 388.215 436.504C383.113 431.54 377.575 426.751 372.973 421.327Q372.53 383.296 373.534 345.276Z"/>
	<path fill="#264671" d="M207.663 731.745C207.765 732.023 207.871 732.3 207.969 732.58C209.674 737.425 210.001 743.451 210.985 748.537C212.442 756.073 214.583 763.623 216.995 770.907Q217.731 773.09 218.521 775.255Q219.31 777.419 220.152 779.564Q220.994 781.709 221.888 783.832Q222.781 785.956 223.727 788.057Q224.672 790.158 225.668 792.236Q226.664 794.313 227.711 796.366Q228.757 798.419 229.853 800.445Q230.949 802.472 232.095 804.471Q233.24 806.47 234.433 808.441Q235.627 810.412 236.868 812.353Q238.109 814.294 239.397 816.205Q240.685 818.115 242.019 819.993Q243.353 821.872 244.733 823.717Q246.112 825.563 247.536 827.374Q248.961 829.185 250.428 830.961Q251.896 832.737 253.407 834.477Q254.917 836.217 256.47 837.919Q258.022 839.622 259.616 841.286Q261.209 842.95 262.843 844.575Q264.476 846.199 266.149 847.784Q267.821 849.369 269.532 850.912Q271.243 852.455 272.991 853.957Q274.738 855.458 276.522 856.916Q278.306 858.374 280.125 859.789Q281.944 861.203 283.796 862.573Q285.649 863.942 287.535 865.267Q289.42 866.591 291.337 867.869Q293.254 869.146 295.202 870.377Q297.15 871.608 299.127 872.791Q301.104 873.974 303.11 875.108Q305.115 876.243 307.147 877.328Q309.18 878.413 311.238 879.449C330.256 889.001 351.452 895.524 372.412 899.083C376.248 899.735 380.397 900.649 384.286 900.59L384.457 900.888C386.038 906.826 387.677 912.852 389.811 918.618C389.609 918.682 389.411 918.758 389.205 918.809C384.095 920.063 378.098 920.322 372.841 920.534C345.201 921.65 318.464 913.752 294.739 899.789C245 870.517 212.99 817.569 198.743 762.781C202.139 752.624 204.843 742.079 207.663 731.745Z"/>
	<path fill="#264671" d="M813.877 721.106C816.058 739.709 819.757 785.798 815.448 802.151C811.288 817.932 800.236 834.73 790.253 847.38C761.288 884.081 717.449 916.189 669.999 921.562C658.27 922.89 647.008 922.042 635.42 920.03C636.849 914.963 641.603 905.957 641.266 901.137L641.633 901.129C663.369 900.682 688.17 892.954 707.687 883.429C754.187 860.734 791.776 817.637 805.082 767.27Q808.26 754.966 809.798 742.352C810.591 736.296 810.613 728.886 812.678 723.173C812.735 723.014 812.8 722.858 812.861 722.701C813.263 722.343 813.6 721.576 813.877 721.106Z"/>
	<path fill="#264671" d="M630.493 936.065C667.231 944.468 701.747 934.669 732.993 915.095Q737.429 912.354 741.721 909.393Q746.013 906.432 750.15 903.259Q754.288 900.086 758.26 896.708Q762.233 893.33 766.03 889.757Q769.827 886.184 773.44 882.423Q777.053 878.663 780.471 874.726Q783.89 870.789 787.106 866.684Q790.322 862.58 793.327 858.319C798.045 851.546 802.088 844.35 806.461 837.357C801.312 852.438 793.05 866.638 784.256 879.879C757.83 919.673 726.166 948.098 683.224 969.175Q670.927 975.289 657.887 979.598Q652.324 1001.69 647.751 1024L603.732 1024C606.939 1014.51 609.462 1004.69 612.37 995.095L630.493 936.065Z"/>
	<path fill="#264671" d="M362.779 978.888C344.562 972.004 326.465 964.316 309.49 954.716C274.924 935.167 251.336 904.688 235.343 868.885C232.065 861.546 228.565 854.05 226.404 846.291C242.751 874.789 261.39 897.64 289.25 915.598C314.706 932.006 344.783 940.988 375.211 938.204C381.942 937.589 388.546 936.103 395.141 934.673C399.6 951.334 404.817 967.807 409.471 984.419C413.162 997.592 416.134 1011.14 420.805 1024L372.756 1024C368.34 1009.43 365.835 993.811 362.779 978.888Z"/>
	<path fill="#264671" d="M193.345 781.718C193.375 781.905 193.408 782.091 193.437 782.278C194.926 791.927 194.561 802.024 195.671 811.786C199.087 841.815 206.559 872.454 218.808 900.141Q204.367 962.215 188.734 1024L147.259 1024C152.092 1001.33 156.053 978.431 160.304 955.644L176.488 871.023Q184.449 826.283 193.345 781.718Z"/>
	<path fill="#264671" d="M802.576 900.543C816.993 868.869 821.972 846.369 825.807 811.799C827.24 798.887 828.54 785.991 828.441 772.988C829.469 775.09 830.46 777.154 831.251 779.362C830.13 785.621 836.852 814.109 838.491 822.748Q851.133 889.658 864.739 956.378L873.095 999.222C874.694 1007.41 876.019 1015.96 878.21 1024L835.973 1024C832.073 1009.16 827.767 994.426 823.815 979.598Q813.638 939.952 802.576 900.543Z"/>
	<path fill="#CED3D4" d="M610.386 329.983C618.792 325.846 627.176 321.284 636.187 318.62C635.88 323.278 635.519 328.146 636.539 332.744C631.452 334.231 586.474 370.573 576.452 377.716L576.513 490.728C572.015 495.168 549.449 519.977 545.742 520.887L544.546 520.658Q543.808 501.822 544.011 482.973L514.269 482.903C512.96 482.727 511.864 482.509 510.605 482.074C510.06 480.011 509.98 436.709 510.49 433.661C510.676 432.554 510.888 432.69 511.743 432.066C526.183 432.224 542.225 431.74 556.283 428.245C547.314 427.15 537.908 427.472 528.868 427.348C527.269 426.168 513.361 426.803 510.447 426.817C510.907 419.157 510.429 411.468 510.615 403.798C514.576 399.65 517.866 394.036 521.151 389.328C529.627 377.184 537.749 364.455 547.036 352.938L580.314 341.399C590.246 338.035 601.147 335.012 610.386 329.983Z"/>
	<path fill="#2D7DB0" d="M516.649 901.425C529.566 900.57 542.383 898.323 554.318 893.167C561.642 900.154 569.57 906.312 577.572 912.485C589.023 919.674 601.165 926.368 613.92 930.962C619.135 932.841 625.601 933.716 630.493 936.065L612.37 995.095C609.462 1004.69 606.939 1014.51 603.732 1024L551.197 1024L516.648 1024Q516.28 962.711 516.649 901.425Z"/>
	<path fill="#EA3739" d="M577.572 912.485C589.023 919.674 601.165 926.368 613.92 930.962C619.135 932.841 625.601 933.716 630.493 936.065L612.37 995.095C609.462 1004.69 606.939 1014.51 603.732 1024L551.197 1024Q565.301 968.459 577.572 912.485Z"/>
	<path fill="#2D7DB0" d="M878.21 1024C876.019 1015.96 874.694 1007.41 873.095 999.222L864.739 956.378Q851.133 889.658 838.491 822.748C836.852 814.109 830.13 785.621 831.251 779.362C853.036 820.152 879.084 860.372 916.471 888.661Q919.47 907.45 923.584 926.027C929.519 958.657 934.79 991.41 940.946 1024L878.21 1024Z"/>
	<path fill="#2D7DB0" d="M108.007 890.684C113.885 884.796 120.569 879.641 126.517 873.756C143.307 857.144 158.474 837.563 170.556 817.268C175.401 809.13 180.114 800.817 184.458 792.4C187.526 786.456 190.307 779.061 194.302 773.762L193.345 781.718Q184.449 826.283 176.488 871.023L160.304 955.644C156.053 978.431 152.092 1001.33 147.259 1024L84.0227 1024C88.574 991.325 94.5922 958.69 100.856 926.296C103.621 914.553 105.646 902.522 108.007 890.684Z"/>
	<path fill="#2D7DB0" d="M467.83 892.383C477.196 895.996 486.665 898.727 496.621 900.188C500.235 900.718 504.083 900.699 507.635 901.331C510.636 901.389 513.648 901.509 516.649 901.425Q516.28 962.713 516.648 1024L507.856 1024L475.289 1024L420.805 1024C416.134 1011.14 413.162 997.592 409.471 984.419C404.817 967.807 399.6 951.334 395.141 934.673C414.785 928.697 432.012 921.287 448.739 909.375C455.726 904.199 461.766 898.577 467.83 892.383Z"/>
	<path fill="#231A3E" d="M507.635 901.331C510.636 901.389 513.648 901.509 516.649 901.425Q516.28 962.713 516.648 1024L507.856 1024Q508.149 962.665 507.635 901.331Z"/>
	<path fill="#EA3739" d="M395.141 934.673C414.785 928.697 432.012 921.287 448.739 909.375C457.921 947.508 465.759 985.944 475.289 1024L420.805 1024C416.134 1011.14 413.162 997.592 409.471 984.419C404.817 967.807 399.6 951.334 395.141 934.673Z"/>
	<path fill="#EA3739" d="M363.966 498.535C376.47 495.25 388.524 490.303 401.082 487.074C401.076 489.345 400.997 491.639 401.075 493.906C401.496 518.859 400.476 543.94 400.332 568.912C338.615 601.851 276.612 630.755 219.752 672.233C222.578 658.705 224.338 644.996 227.032 631.458L227.849 626.443C229.14 614.863 231.718 603.246 233.377 591.682C234.285 587.359 234.859 582.963 235.51 578.596L235.836 578.399C239.085 573.339 346.348 529.839 359.051 524.432L359.002 524.134C360.692 523.939 362.345 523.846 364.046 523.802L364.117 521.574C363.874 513.913 364.008 506.202 363.966 498.535Z"/>
	<path fill="#FCFCFB" d="M363.966 498.535C376.47 495.25 388.524 490.303 401.082 487.074C401.076 489.345 400.997 491.639 401.075 493.906Q384.427 496.549 368.35 501.615L368.488 558.774C332.437 576.685 296.93 595.856 261.097 614.216C253.742 617.984 233.611 629.704 227.032 631.458L227.849 626.443C232.421 624.827 237.037 621.998 241.35 619.753C250.28 615.104 259.14 610.317 268.106 605.735C300.205 589.331 332.562 573.195 364.308 556.116C363.909 545.386 364.116 534.545 364.046 523.802L364.117 521.574C363.874 513.913 364.008 506.202 363.966 498.535Z"/>
	<path fill="#EA3739" d="M364.046 523.802C364.116 534.545 363.909 545.386 364.308 556.116C332.562 573.195 300.205 589.331 268.106 605.735C259.14 610.317 250.28 615.104 241.35 619.753C237.037 621.998 232.421 624.827 227.849 626.443C229.14 614.863 231.718 603.246 233.377 591.682C234.285 587.359 234.859 582.963 235.51 578.596L235.836 578.399C239.085 573.339 346.348 529.839 359.051 524.432L359.002 524.134C360.692 523.939 362.345 523.846 364.046 523.802Z"/>
	<path fill="#F18076" d="M359.051 524.432C360.604 529.074 359.48 536.141 359.59 541.126Q328.324 556.536 296.736 571.274C289.127 574.86 276.139 582.575 268.416 583.596C260.857 584.594 252.383 581.553 244.991 580.138C242.371 579.637 239.381 579.529 236.844 578.842C236.371 578.714 236.222 578.61 235.836 578.399C239.085 573.339 346.348 529.839 359.051 524.432Z"/>
	<path fill="#EA3739" d="M623.181 482.353C629.903 483.67 645.277 491.874 652.618 495.016C654.595 495.862 656.898 497.126 658.97 497.557L662.807 499.147C663.677 497.411 663.203 495.28 664.209 493.76C664.658 493.081 665.983 492.954 666.746 492.74C667.794 493.199 669.763 493.657 670.187 494.837C671.482 498.444 671.358 502.905 672.454 506.672C674.355 513.21 677.69 519.341 679.813 525.816C679.797 528.287 679.506 531.213 679.883 533.632C692.719 538.765 705.311 544.501 718.009 549.964L776.73 575.424L781.4 576.477C783.307 577.196 785.083 577.969 786.872 578.95C787.956 593.07 791.083 607.757 793.691 621.686L794.318 626.152C795.996 640.649 798.875 655.384 801.667 669.712C759.809 640.227 714.5 615.335 668.902 592.168C653.799 584.494 638.763 576.49 623.36 569.437C622.704 544.353 623.16 519.154 623.225 494.057C622.914 490.188 623.124 486.235 623.181 482.353Z"/>
	<path fill="#F2BEAC" d="M623.181 482.353C629.903 483.67 645.277 491.874 652.618 495.016C654.595 495.862 656.898 497.126 658.97 497.557C658.932 506.984 659.673 516.707 658.92 526.084C658.469 520.178 658.637 514.196 658.626 508.275C648.188 502.613 634.664 497.275 623.225 494.057C622.914 490.188 623.124 486.235 623.181 482.353Z"/>
	<path fill="#FCFCFB" d="M658.97 497.557L662.807 499.147C662.121 505.893 662.528 512.955 662.537 519.747L662.605 555.838C687.348 569.143 712.866 581.134 737.901 593.892Q756.075 603.254 774.381 612.353C780.726 615.52 787.09 619.101 793.691 621.686L794.318 626.152Q751.056 604.962 708.146 583.07C698.818 578.385 665.968 563.291 659.917 557.471C657.712 551.749 658.892 533.107 658.92 526.084C659.673 516.707 658.932 506.984 658.97 497.557Z"/>
	<path fill="#EA3739" d="M662.807 499.147C663.677 497.411 663.203 495.28 664.209 493.76C664.658 493.081 665.983 492.954 666.746 492.74C667.794 493.199 669.763 493.657 670.187 494.837C671.482 498.444 671.358 502.905 672.454 506.672C674.355 513.21 677.69 519.341 679.813 525.816C679.797 528.287 679.506 531.213 679.883 533.632C692.719 538.765 705.311 544.501 718.009 549.964L776.73 575.424L781.4 576.477C783.307 577.196 785.083 577.969 786.872 578.95C787.956 593.07 791.083 607.757 793.691 621.686C787.09 619.101 780.726 615.52 774.381 612.353Q756.074 603.254 737.901 593.892C712.866 581.134 687.348 569.143 662.605 555.838L662.537 519.747C662.528 512.955 662.121 505.893 662.807 499.147Z"/>
	<path fill="#F2BEAC" d="M679.883 533.632C692.719 538.765 705.311 544.501 718.009 549.964L776.73 575.424C777.451 579.456 778.497 583.395 779.525 587.356C768.736 583.612 758.161 578.55 747.69 573.978C725.051 564.093 702.643 553.658 679.958 543.884L679.883 533.632Z"/>
	<path fill="#266193" d="M671.234 797.977C689.367 788.767 707.165 778.747 725.136 769.209L812.861 722.701C812.8 722.858 812.735 723.014 812.678 723.173C810.613 728.886 810.591 736.296 809.798 742.352Q808.26 754.966 805.082 767.27C791.776 817.637 754.187 860.734 707.687 883.429C688.17 892.954 663.369 900.682 641.633 901.129C646.386 887.643 650.052 873.594 653.93 859.824L671.234 797.977Z"/>
	<path fill="#266193" d="M209.796 721.328Q280.856 761.704 352.746 800.582Q368.137 850.706 384.286 900.59C380.397 900.649 376.248 899.735 372.412 899.083C351.452 895.524 330.256 889.001 311.238 879.449Q309.18 878.413 307.147 877.328Q305.115 876.243 303.11 875.108Q301.104 873.974 299.127 872.791Q297.15 871.608 295.202 870.377Q293.254 869.146 291.337 867.869Q289.42 866.591 287.535 865.267Q285.649 863.943 283.796 862.573Q281.944 861.203 280.125 859.789Q278.306 858.374 276.522 856.916Q274.738 855.458 272.991 853.957Q271.243 852.455 269.532 850.912Q267.821 849.369 266.149 847.784Q264.476 846.199 262.843 844.575Q261.209 842.95 259.616 841.286Q258.022 839.622 256.47 837.919Q254.917 836.217 253.407 834.477Q251.896 832.737 250.428 830.961Q248.961 829.185 247.536 827.374Q246.112 825.563 244.733 823.717Q243.353 821.872 242.019 819.993Q240.685 818.115 239.397 816.205Q238.109 814.294 236.868 812.353Q235.627 810.412 234.433 808.441Q233.24 806.47 232.095 804.471Q230.949 802.472 229.853 800.445Q228.757 798.419 227.711 796.366Q226.664 794.313 225.668 792.236Q224.672 790.158 223.727 788.057Q222.781 785.956 221.888 783.832Q220.994 781.709 220.152 779.564Q219.31 777.419 218.521 775.255Q217.731 773.09 216.995 770.907C214.583 763.623 212.442 756.073 210.985 748.537C210.001 743.451 209.674 737.425 207.969 732.58C207.871 732.3 207.765 732.023 207.663 731.745C208.409 728.281 209.086 724.8 209.796 721.328Z"/>
	<path fill="#B6B9BA" d="M385.138 291.766C386.22 288.921 384.721 277.432 383.975 274.151C383.733 273.089 383.626 272.195 383.604 271.105C388.879 271.334 394.592 281.635 398.516 284.605C398.75 284.782 398.993 284.946 399.231 285.116C407.502 298.701 411.493 314.098 419.806 327.567C428.971 336.968 449.862 343.396 462.238 348.222C466.236 349.781 471.035 351.088 474.383 353.813C478.556 357.209 481.923 363.374 485.007 367.8C492.65 378.774 500.81 391.894 509.381 401.966L510.615 403.798C510.429 411.468 510.907 419.157 510.447 426.817C513.361 426.803 527.269 426.168 528.868 427.348C537.908 427.472 547.314 427.15 556.283 428.245C542.225 431.74 526.183 432.224 511.743 432.066C510.888 432.69 510.676 432.554 510.49 433.661C509.98 436.709 510.06 480.011 510.605 482.074C511.864 482.509 512.96 482.727 514.269 482.903L491.246 482.567C483.487 494.811 475.177 506.971 467.874 519.481C461.217 511.789 453.135 505.334 446.556 497.476C441.344 490.706 435.171 484.492 429.459 478.13C430.729 468.461 429.939 457.798 429.915 448.021Q429.715 419.092 429.931 390.164C421.063 381.975 411.748 374.567 402.358 367.007C397.345 362.97 392.361 358.451 387.021 354.877C383.39 350.994 378.501 347.713 374.134 344.704C374.73 338.587 374.112 331.987 374.06 325.813C378.621 329.259 383.513 333.15 388.996 334.974C388.981 329.828 388.731 324.679 388.545 319.536C387.372 310.311 386.031 301.018 385.138 291.766Z"/>
	<path fill="#231A3E" d="M511.743 432.066C505.825 432.322 499.833 432.155 493.919 431.853C489.697 431.638 469.634 430.488 467.65 428.291L468.716 428.052L468.87 428.604L469.233 428.651L469.445 428.005C489.044 426.474 509.197 427.52 528.868 427.348C537.908 427.472 547.314 427.15 556.283 428.245C542.225 431.74 526.183 432.224 511.743 432.066Z"/>
	<path fill="#419BC1" d="M385.138 291.766C386.22 288.921 384.721 277.432 383.975 274.151C383.733 273.089 383.626 272.195 383.604 271.105C388.879 271.334 394.592 281.635 398.516 284.605C398.75 284.782 398.993 284.946 399.231 285.116C407.502 298.701 411.493 314.098 419.806 327.567C417.788 326.516 417.344 325.571 416.173 323.651C415.139 321.956 413.647 319.985 411.567 319.602C408.038 318.951 400.25 322.723 397.248 324.692L397.401 325.135C398.044 325.562 398.807 325.994 399.371 326.516C400.823 327.855 402.519 328.561 403.865 329.915L403.553 330.34C397.996 328.405 394.335 321.956 389.075 319.709C388.905 319.636 388.722 319.594 388.545 319.536C387.372 310.311 386.031 301.018 385.138 291.766Z"/>
	<path fill="#B21216" d="M374.06 325.813C378.621 329.259 383.513 333.15 388.996 334.974C394.876 338.045 400.441 343.147 405.758 347.157C419.412 357.456 432.939 367.789 446.127 378.683C446.372 418.277 445.937 457.89 446.556 497.476C441.344 490.706 435.171 484.492 429.459 478.13C430.729 468.461 429.939 457.798 429.915 448.021Q429.715 419.092 429.931 390.164C421.063 381.975 411.748 374.567 402.358 367.007C397.345 362.97 392.361 358.451 387.021 354.877C383.39 350.994 378.501 347.713 374.134 344.704C374.73 338.587 374.112 331.987 374.06 325.813Z"/>
	<path fill="#5DBECE" d="M217.607 683.507C220.648 681.015 223.661 678.559 226.918 676.353C241.585 685.091 256.547 693.359 271.338 701.888L347.737 745.958L385.244 767.329C390.315 770.243 396.018 772.91 400.771 776.253C401.507 776.77 401.869 777.113 402.285 777.881C398.253 804.947 407.222 835.716 423.474 857.489C431.528 868.279 441.758 877.186 452.815 884.788C448.55 888.119 443.611 889.89 438.556 891.709C420.96 898.043 403.104 900.857 384.457 900.888L384.286 900.59Q368.137 850.706 352.746 800.582Q280.856 761.704 209.796 721.328C213.8 709.255 214.966 695.931 217.607 683.507Z"/>
	<path fill="#5DBECE" d="M798.03 674.86L804.149 678.889C806.592 692.89 809.943 707.462 813.877 721.106C813.6 721.576 813.263 722.343 812.861 722.701L725.136 769.209C707.165 778.747 689.367 788.767 671.234 797.977L653.93 859.824C650.052 873.594 646.386 887.643 641.633 901.129L641.266 901.137C615.047 902.217 592.454 896.28 568.412 886.461L567.978 886.259C575.98 884.052 591.907 867.105 597.042 860.694Q597.912 859.607 598.755 858.499Q599.597 857.391 600.412 856.262Q601.227 855.133 602.014 853.985Q602.801 852.836 603.559 851.669Q604.317 850.501 605.046 849.315Q605.775 848.129 606.474 846.925Q607.174 845.722 607.843 844.501Q608.512 843.28 609.151 842.043Q609.79 840.807 610.398 839.554Q611.006 838.302 611.583 837.035Q612.16 835.768 612.705 834.487Q613.251 833.206 613.764 831.912Q614.278 830.618 614.759 829.312Q615.24 828.005 615.689 826.688Q616.138 825.37 616.554 824.041Q616.97 822.713 617.353 821.374Q617.735 820.036 618.085 818.688Q618.435 817.341 618.751 815.985Q619.067 814.629 619.35 813.266Q619.632 811.903 619.881 810.533Q620.13 809.163 620.344 807.788Q620.559 806.412 620.74 805.032Q620.92 803.652 621.067 802.267Q621.213 800.883 621.325 799.495Q621.437 798.107 621.514 796.718Q621.592 795.328 621.635 793.936Q621.678 792.545 621.687 791.152Q621.696 789.76 621.67 788.368Q621.644 786.976 621.584 785.586Q621.524 784.195 621.429 782.806Q621.334 781.417 621.205 780.031Q621.076 778.645 620.913 777.262L730.345 714.651Q752.755 702.169 774.877 689.185C782.349 684.866 791.687 680.624 798.03 674.86Z"/>
	<path fill="#264671" d="M385.138 291.766C383.591 285.902 383.224 278.848 382.97 272.821C381.234 231.579 391.85 185.423 420.372 154.452C439.075 134.142 470.409 116.721 498.413 115.475Q499.36 120.544 500.828 125.488L500.69 125.82C501.001 126.196 501.4 126.515 501.622 126.949C502.533 128.729 504.013 148.639 504.008 151.757L504.866 151.985C505.472 158.326 505.967 164.629 506.154 171.001C508.644 171.065 511.273 170.961 513.729 171.376C511.549 171.415 509.058 170.991 507.287 172.292C507.084 173.325 507.004 174.249 506.999 175.302C509.607 181.673 510.324 198.596 509.904 205.558L512.616 205.56C511.377 205.827 510.291 205.759 509.474 206.767C509.037 212.596 509.185 218.728 509.495 224.564C510.154 242.816 511.142 398.154 509.381 401.966C500.81 391.894 492.65 378.774 485.007 367.8C481.923 363.374 478.556 357.209 474.383 353.813C471.035 351.088 466.236 349.781 462.238 348.222C449.862 343.396 428.971 336.968 419.806 327.567C411.493 314.098 407.502 298.701 399.231 285.116C398.993 284.946 398.75 284.782 398.516 284.605C394.592 281.635 388.879 271.334 383.604 271.105C383.626 272.195 383.733 273.089 383.975 274.151C384.721 277.432 386.22 288.921 385.138 291.766Z"/>
	<path fill="#B6B9BA" d="M504.008 151.757L504.866 151.985C505.472 158.326 505.967 164.629 506.154 171.001C508.644 171.065 511.273 170.961 513.729 171.376C511.549 171.415 509.058 170.991 507.287 172.292C507.084 173.325 507.004 174.249 506.999 175.302C509.607 181.673 510.324 198.596 509.904 205.558L512.616 205.56C511.377 205.827 510.291 205.759 509.474 206.767C509.037 212.596 509.185 218.728 509.495 224.564L494.332 224.539Q491.439 238.066 488.018 251.47L470.677 251.322C474.504 234.742 479.208 218.515 483.694 202.118L497.197 152.118Q500.605 151.988 504.008 151.757Z"/>
	<path fill="#264671" d="M506.999 175.302C509.607 181.673 510.324 198.596 509.904 205.558L500.248 205.612C501.505 195.331 505.163 185.481 506.999 175.302Z"/>
	<path fill="#231A3E" d="M385.665 270.791L440.504 288.949C445.904 291.621 452.367 293.213 458.102 295.065C470.978 299.223 484.469 303.317 496.608 309.328C488.665 320.673 477.81 331.162 464.459 335.778Q463.684 336.052 462.896 336.288Q462.109 336.523 461.31 336.718Q460.512 336.913 459.705 337.069Q458.898 337.224 458.084 337.338Q457.27 337.453 456.451 337.526Q455.632 337.6 454.811 337.632Q453.989 337.665 453.167 337.656Q452.346 337.647 451.525 337.597Q450.705 337.548 449.888 337.457Q449.071 337.366 448.259 337.234Q447.448 337.102 446.644 336.93Q445.84 336.758 445.046 336.545Q444.252 336.333 443.47 336.081Q442.687 335.829 441.918 335.539Q441.15 335.248 440.396 334.919Q439.643 334.59 438.907 334.224C429.448 329.468 422.643 321.846 419.614 311.683C418.275 307.193 417.482 302.486 415.946 298.065C412.986 289.543 404.369 282.157 396.358 278.399C396.209 278.329 396.059 278.262 395.909 278.194C392.315 275.999 389.112 273.208 385.665 270.791Z"/>
	<path fill="#FCFCFB" d="M429.563 293.549L430.384 293.512C431.353 293.462 432.266 293.466 433.234 293.585C438.281 294.207 461.951 302.091 466.437 304.419C468.528 305.505 470.573 306.886 471.961 308.826C473.255 310.635 473.874 312.869 473.372 315.068C472.311 319.709 466.879 323.261 463.046 325.588C456.992 328.253 450.929 329.805 444.269 328.561C436.8 327.166 430.392 321.983 426.22 315.775C423.599 311.873 421.637 306.984 422.695 302.227C423.598 298.167 426.133 295.655 429.563 293.549Z"/>
	<path fill="#2D7DB0" d="M385.138 291.766C383.591 285.902 383.224 278.848 382.97 272.821C381.234 231.579 391.85 185.423 420.372 154.452C439.075 134.142 470.409 116.721 498.413 115.475Q499.36 120.544 500.828 125.488L500.69 125.82C467.38 130.668 437.239 145.002 416.788 172.547C413.666 176.752 410.8 181.258 408.506 185.971C424.141 208.925 434.796 235.385 442.404 261.979C444.211 268.293 447.169 277.08 445.86 283.635C445.331 286.282 443.095 287.337 440.987 288.657C440.827 288.757 440.665 288.852 440.504 288.949L385.665 270.791C389.112 273.208 392.315 275.999 395.909 278.194C396.747 280.681 397.953 282.843 399.231 285.116C398.993 284.946 398.75 284.782 398.516 284.605C394.592 281.635 388.879 271.334 383.604 271.105C383.626 272.195 383.733 273.089 383.975 274.151C384.721 277.432 386.22 288.921 385.138 291.766Z"/>
	<path fill="#266193" d="M498.413 115.475C531.74 112.071 565.334 120.625 591.493 141.986C625.456 169.719 638.033 209.437 642.089 251.486C642.778 258.627 643.383 265.876 642.843 273.043C641.688 288.363 637.244 303.292 636.187 318.62C627.176 321.284 618.792 325.846 610.386 329.983C601.147 335.012 590.246 338.035 580.314 341.399L547.036 352.938C537.749 364.455 529.627 377.184 521.151 389.328C517.866 394.036 514.576 399.65 510.615 403.798L509.381 401.966C511.142 398.154 510.154 242.816 509.495 224.564C509.185 218.728 509.037 212.596 509.474 206.767C510.291 205.759 511.377 205.827 512.616 205.56L509.904 205.558C510.324 198.596 509.607 181.673 506.999 175.302C507.004 174.249 507.084 173.325 507.287 172.292C509.058 170.991 511.549 171.415 513.729 171.376C511.273 170.961 508.644 171.065 506.154 171.001C505.967 164.629 505.472 158.326 504.866 151.985L504.008 151.757C504.013 148.639 502.533 128.729 501.622 126.949C501.4 126.515 501.001 126.196 500.69 125.82L500.828 125.488Q499.36 120.544 498.413 115.475Z"/>
	<path fill="#FCFCFB" d="M504.866 151.985C512.459 151.403 519.993 151.27 527.586 151.978Q539.909 201.773 553.062 251.355Q544.01 251.463 534.958 251.471C532.884 242.602 530.284 233.745 528.578 224.812C522.217 224.549 515.861 224.563 509.495 224.564C509.185 218.728 509.037 212.596 509.474 206.767C510.291 205.759 511.377 205.827 512.616 205.56L509.904 205.558C510.324 198.596 509.607 181.673 506.999 175.302C507.004 174.249 507.084 173.325 507.287 172.292C509.058 170.991 511.549 171.415 513.729 171.376C511.273 170.961 508.644 171.065 506.154 171.001C505.967 164.629 505.472 158.326 504.866 151.985Z"/>
	<path fill="#266193" d="M513.729 171.376C514.633 171.601 514.727 171.406 515.23 172.27C517.664 176.45 522.39 199.305 523.89 205.558L512.616 205.56L509.904 205.558C510.324 198.596 509.607 181.673 506.999 175.302C507.004 174.249 507.084 173.325 507.287 172.292C509.058 170.991 511.549 171.415 513.729 171.376Z"/>
	<path fill="#1B0E36" d="M590.098 286.905C606.957 280.693 624.694 276.66 641.597 270.471C638.167 272.584 634.963 274.82 631.788 277.299L631.295 277.535C626.865 279.707 621.17 282.565 617.806 286.243C614.996 289.316 613.119 293.429 611.2 297.098C603.419 311.981 597.344 329.706 580.086 335.623C572.728 338.146 565.559 337.816 558.227 335.394C545.841 331.303 532.519 321.16 526.624 309.332C545.827 299.815 570.05 294.967 590.098 286.905Z"/>
	<path fill="#FCFCFB" d="M592.479 293.147Q593.451 293.336 594.399 293.624C598.725 294.891 600.334 296.958 602.431 300.839C602.174 301.984 601.903 303.133 601.536 304.249C598.867 312.383 592.845 322.606 584.931 326.413C577.495 329.99 569.756 329.499 562.204 326.722C556.601 324.132 552.734 320.57 549.595 315.276C549.757 313.371 549.82 310.688 550.853 309.025C553.926 304.077 585.618 294.277 592.479 293.147Z"/>
	<path fill="#419BC1" d="M498.413 115.475C531.74 112.071 565.334 120.625 591.493 141.986C625.456 169.719 638.033 209.437 642.089 251.486C642.778 258.627 643.383 265.876 642.843 273.043C641.688 288.363 637.244 303.292 636.187 318.62C627.176 321.284 618.792 325.846 610.386 329.983C615.576 311.336 621.936 294.002 631.788 277.299C634.963 274.82 638.167 272.584 641.597 270.471C624.694 276.66 606.957 280.693 590.098 286.905C587.454 285.356 583.445 283.421 582.379 280.322C580.557 275.019 583.174 266.255 584.439 260.95Q586.833 250.822 589.871 240.867Q592.909 230.913 596.579 221.174Q600.248 211.435 604.535 201.951Q608.821 192.467 613.706 183.277C608.721 173.936 601.906 165.307 594.235 158.027Q592.507 156.393 590.716 154.828Q588.925 153.264 587.073 151.772Q585.221 150.28 583.311 148.863Q581.401 147.446 579.437 146.105Q577.472 144.765 575.456 143.504Q573.44 142.242 571.376 141.062Q569.311 139.882 567.201 138.785Q565.091 137.688 562.939 136.675Q560.787 135.662 558.597 134.736Q556.407 133.81 554.181 132.971Q551.956 132.132 549.699 131.383Q547.442 130.633 545.157 129.974Q542.872 129.314 540.563 128.746Q538.254 128.178 535.924 127.702Q533.594 127.226 531.247 126.843Q528.899 126.46 526.539 126.17C517.94 125.167 509.461 125.28 500.828 125.488Q499.36 120.544 498.413 115.475Z"/>
	<path fill="#FCFCFB" d="M725.873 630.604Q749.214 644.17 772.095 658.499Q785.136 666.563 798.03 674.86C791.687 680.624 782.349 684.866 774.877 689.185Q752.755 702.17 730.345 714.651L620.913 777.262Q621.076 778.645 621.205 780.031Q621.334 781.417 621.429 782.806Q621.524 784.195 621.584 785.586Q621.644 786.976 621.67 788.368Q621.696 789.76 621.687 791.152Q621.678 792.544 621.635 793.936Q621.592 795.327 621.514 796.717Q621.437 798.107 621.325 799.495Q621.213 800.883 621.067 802.267Q620.92 803.651 620.74 805.032Q620.559 806.412 620.344 807.788Q620.13 809.163 619.881 810.533Q619.632 811.903 619.35 813.266Q619.067 814.629 618.751 815.985Q618.435 817.341 618.085 818.688Q617.735 820.036 617.352 821.374Q616.969 822.713 616.553 824.041Q616.138 825.37 615.689 826.688Q615.24 828.005 614.759 829.312Q614.278 830.618 613.764 831.912Q613.251 833.206 612.705 834.487Q612.16 835.768 611.583 837.035Q611.006 838.302 610.398 839.554Q609.79 840.807 609.151 842.043Q608.512 843.28 607.843 844.501Q607.174 845.722 606.474 846.925Q605.775 848.129 605.046 849.315Q604.317 850.501 603.559 851.669Q602.801 852.836 602.014 853.985Q601.227 855.133 600.412 856.262Q599.597 857.391 598.755 858.499Q597.912 859.607 597.042 860.694C591.907 867.105 575.98 884.052 567.978 886.259C563.523 888.769 559.062 891.228 554.318 893.167C542.383 898.323 529.566 900.57 516.649 901.425C513.648 901.509 510.636 901.389 507.635 901.331C504.083 900.699 500.235 900.718 496.621 900.188C486.665 898.727 477.196 895.996 467.83 892.383C462.986 890.352 458.309 887.977 453.636 885.585L452.815 884.788C441.758 877.186 431.528 868.279 423.474 857.489C407.222 835.716 398.253 804.947 402.285 777.881C401.869 777.113 401.507 776.77 400.771 776.253C396.018 772.91 390.315 770.243 385.244 767.329L347.737 745.958L271.338 701.888C256.547 693.359 241.585 685.091 226.918 676.353C233.486 671.476 240.059 666.578 247.044 662.307C262.21 651.38 278.949 642.257 295.013 632.727C302.927 637.422 310.286 643.328 317.67 648.803L359.318 680.272Q387.896 701.755 415.967 723.895C424.822 730.854 434.732 737.612 442.771 745.468C430.604 763.649 425.477 787.058 429.646 808.598C434.101 831.614 446.926 851.832 466.444 864.929Q467.262 865.488 468.093 866.026Q468.925 866.564 469.769 867.081Q470.614 867.598 471.471 868.094Q472.329 868.59 473.198 869.064Q474.068 869.538 474.949 869.991Q475.83 870.443 476.722 870.873Q477.614 871.303 478.517 871.711Q479.419 872.119 480.332 872.504Q481.244 872.889 482.166 873.251Q483.088 873.613 484.019 873.951Q484.949 874.29 485.888 874.606Q486.827 874.921 487.774 875.213Q488.72 875.505 489.674 875.773Q490.627 876.041 491.587 876.285Q492.547 876.529 493.512 876.749Q494.478 876.969 495.449 877.164Q496.42 877.36 497.395 877.532Q498.371 877.703 499.35 877.85Q500.33 877.997 501.312 878.119Q502.295 878.242 503.281 878.339Q504.266 878.437 505.254 878.51Q506.242 878.583 507.231 878.631Q508.22 878.68 509.21 878.703Q510.201 878.727 511.191 878.725Q512.181 878.724 513.172 878.698Q514.161 878.672 515.151 878.621Q516.14 878.57 517.127 878.495Q518.115 878.419 519.1 878.319Q520.085 878.219 521.068 878.094Q522.05 877.969 523.029 877.819Q524.009 877.67 524.984 877.496Q525.959 877.322 526.929 877.124C549.19 872.637 568.126 860.508 580.691 841.425C593.325 822.239 598.214 799.578 593.453 776.964Q593.013 774.867 592.472 772.794Q591.93 770.721 591.288 768.677Q590.646 766.633 589.905 764.623Q589.164 762.612 588.326 760.64Q587.488 758.668 586.555 756.74Q585.622 754.811 584.596 752.93Q583.57 751.049 582.454 749.221Q581.337 747.392 580.133 745.62Q606.149 725.718 631.698 705.218L725.873 630.604Z"/>
	<path fill="#B9E0E5" d="M226.918 676.353C233.486 671.476 240.059 666.578 247.044 662.307C259.804 668.571 271.759 677.243 284.135 684.334L361.712 729.149C376.828 737.98 391.778 747.111 407.054 755.663C405.76 759.851 404.748 763.981 403.943 768.289C403.437 770.992 403.286 775.516 402.285 777.881C401.869 777.113 401.507 776.77 400.771 776.253C396.018 772.91 390.315 770.243 385.244 767.329L347.737 745.958L271.338 701.888C256.547 693.359 241.585 685.091 226.918 676.353Z"/>
	<path fill="#B9E0E5" d="M772.095 658.499Q785.136 666.563 798.03 674.86C791.687 680.624 782.349 684.866 774.877 689.185Q752.755 702.17 730.345 714.651L620.913 777.262C620.181 770.109 618.212 763.504 616.193 756.636C651.697 736.479 686.355 714.319 720.728 692.29Q736.86 681.953 752.808 671.335C759.205 667.153 766.089 663.214 772.095 658.499Z"/>
	<path fill="#266193" d="M514.414 624.379C536.391 618.582 612.057 594.962 623.898 577.676Q633.695 582.708 643.552 587.62C647.389 589.396 651.113 591.339 654.843 593.328C678.437 605.774 702.818 617.189 725.873 630.604L631.698 705.218Q606.149 725.717 580.133 745.62Q581.337 747.392 582.454 749.221Q583.57 751.049 584.596 752.93Q585.622 754.811 586.555 756.74Q587.488 758.668 588.326 760.64Q589.164 762.612 589.905 764.623Q590.646 766.633 591.288 768.677Q591.93 770.721 592.472 772.794Q593.013 774.867 593.453 776.964C598.214 799.578 593.325 822.239 580.691 841.425C568.126 860.508 549.19 872.637 526.929 877.124Q525.959 877.322 524.984 877.496Q524.009 877.67 523.03 877.819Q522.05 877.969 521.068 878.094Q520.085 878.219 519.1 878.319Q518.115 878.419 517.127 878.495Q516.14 878.57 515.151 878.621Q514.161 878.672 513.172 878.698Q512.181 878.724 511.191 878.725Q510.201 878.727 509.21 878.703Q508.22 878.68 507.231 878.631Q506.242 878.583 505.254 878.51Q504.266 878.437 503.281 878.339Q502.295 878.242 501.312 878.119Q500.33 877.997 499.35 877.85Q498.371 877.703 497.395 877.532Q496.42 877.36 495.449 877.164Q494.478 876.969 493.512 876.749Q492.547 876.529 491.587 876.285Q490.627 876.041 489.674 875.773Q488.72 875.505 487.774 875.213Q486.827 874.921 485.888 874.606Q484.949 874.29 484.019 873.951Q483.088 873.613 482.166 873.251Q481.244 872.889 480.332 872.504Q479.419 872.119 478.517 871.711Q477.614 871.303 476.722 870.873Q475.83 870.443 474.949 869.991Q474.068 869.538 473.198 869.064Q472.329 868.59 471.471 868.094Q470.614 867.598 469.769 867.081Q468.925 866.564 468.093 866.026Q467.262 865.488 466.444 864.929C446.926 851.832 434.101 831.614 429.646 808.598C425.477 787.058 430.604 763.649 442.771 745.468C434.732 737.612 424.822 730.854 415.967 723.895Q387.895 701.755 359.318 680.272L317.67 648.803C310.286 643.328 302.927 637.422 295.013 632.727L367.607 594.352C371.138 591.822 375.682 589.765 379.59 587.893Q430.728 613.597 483.444 635.886Q482.849 675.151 483.098 714.42C491.988 712.292 500.963 709.885 510.111 709.22C511.39 709.323 512.471 709.505 513.677 708.952C514.701 705.052 514.1 699.704 514.114 695.642C514.151 684.93 513.731 673.984 514.418 663.305L514.414 624.379Z"/>
	<path fill="#419BC1" d="M514.414 624.379C536.391 618.582 612.057 594.962 623.898 577.676Q633.695 582.708 643.552 587.62C632.496 593.128 621.701 599.146 610.629 604.612C597.573 611.057 584.214 616.927 570.933 622.892C560.851 627.42 550.512 632.541 539.961 635.856L539.998 714.614C531.687 712.297 523.055 709.667 514.383 709.358C514.549 694.128 515.332 678.5 514.418 663.305L514.414 624.379Z"/>
	<path fill="#EA3739" d="M367.607 594.352C379.418 607.801 389.777 622.672 400.948 636.667Q424.176 665.751 446.618 695.445C453.391 704.312 460.617 712.957 467.021 722.089C457.37 728.689 449.471 735.834 442.771 745.468C434.732 737.612 424.822 730.854 415.967 723.895Q387.895 701.755 359.318 680.272L317.67 648.803C310.286 643.328 302.927 637.422 295.013 632.727L367.607 594.352Z"/>
	<path fill="#EA3739" d="M654.843 593.328C678.437 605.774 702.818 617.189 725.873 630.604L631.698 705.218Q606.149 725.717 580.133 745.62C572.573 735.209 565.281 727.701 554.015 721.335Q580.656 686.244 608.173 651.835C623.562 632.214 638.76 612.388 654.843 593.328Z"/>
	<path fill="#EC9843" d="M508.567 727.708C508.656 727.698 508.744 727.684 508.833 727.678C525.005 726.6 541.535 732.918 553.673 743.497C566.979 755.095 575.017 772.291 576.204 789.837C577.37 807.07 571.007 825.62 559.571 838.549C548.296 851.298 531.777 858.718 514.921 859.696C499.639 860.451 483.413 854.501 471.619 844.908C457.983 833.817 449.488 817.088 447.82 799.66C446.165 782.355 451.614 763.606 462.801 750.241C474.416 736.364 490.823 729.286 508.567 727.708Z"/>
	<path fill="#FCFCFB" d="M510.913 748.707C521.516 748.378 532.324 752.466 540.478 759.147C549.265 766.348 554.913 777.355 555.957 788.643Q556.056 789.755 556.101 790.87Q556.145 791.986 556.134 793.102Q556.123 794.219 556.057 795.333Q555.991 796.448 555.87 797.557Q555.748 798.667 555.572 799.77Q555.396 800.872 555.166 801.964Q554.936 803.057 554.651 804.136Q554.367 805.216 554.03 806.28Q553.693 807.345 553.303 808.391Q552.914 809.437 552.473 810.463Q552.032 811.488 551.541 812.491Q551.05 813.494 550.51 814.471Q549.97 815.448 549.383 816.397Q548.795 817.346 548.161 818.265Q547.527 819.184 546.848 820.071Q546.17 820.957 545.448 821.809C536.817 832.028 526.089 836.285 513.007 837.392C502.576 837.247 492.454 833.819 484.384 827.111C475.245 819.514 468.893 807.727 467.851 795.864Q467.769 794.812 467.738 793.758Q467.707 792.703 467.728 791.649Q467.749 790.594 467.822 789.542Q467.894 788.489 468.019 787.441Q468.143 786.394 468.318 785.354Q468.493 784.313 468.72 783.283Q468.946 782.253 469.222 781.234Q469.498 780.216 469.824 779.213Q470.15 778.21 470.525 777.224Q470.9 776.237 471.322 775.271Q471.745 774.304 472.214 773.359Q472.684 772.415 473.199 771.494Q473.714 770.574 474.274 769.679Q474.833 768.785 475.436 767.919Q476.039 767.054 476.684 766.219Q477.328 765.384 478.013 764.581C486.563 754.532 497.961 749.727 510.913 748.707Z"/>
</svg>
